<svg width="48" height="44" viewBox="0 0 48 44" fill="none" xmlns="http://www.w3.org/2000/svg">
<path d="M2.14673 15.2066H46.3855M11.9776 1.61963V6.14861M36.5547 1.61963V6.14861M9.51986 22.0001H14.4353M21.8084 22.0001H26.7238M34.0969 22.0001H39.0124M9.51986 28.7935H14.4353M21.8084 28.7935H26.7238M34.0969 28.7935H39.0124M9.51986 35.587H14.4353M21.8084 35.587H26.7238M34.0969 35.587H39.0124M10.0114 42.3805H38.5208C41.2737 42.3805 42.6503 42.3805 43.7017 41.8868C44.6265 41.4527 45.3786 40.7598 45.8497 39.9077C46.3855 38.9389 46.3855 37.6706 46.3855 35.1341V13.395C46.3855 10.8585 46.3855 9.59028 45.8497 8.62149C45.3786 7.76929 44.6265 7.07645 43.7017 6.64225C42.6503 6.14861 41.2737 6.14861 38.5208 6.14861H10.0114C7.25852 6.14861 5.88205 6.14861 4.8306 6.64225C3.90569 7.07645 3.15373 7.76929 2.68248 8.62149C2.14673 9.59028 2.14673 10.8585 2.14673 13.395V35.1341C2.14673 37.6706 2.14673 38.9389 2.68248 39.9077C3.15373 40.7598 3.90569 41.4527 4.8306 41.8868C5.88205 42.3805 7.25849 42.3805 10.0114 42.3805Z" stroke="#F48C06" stroke-width="2.58152" stroke-linecap="round"/>
</svg>
